<svg width="24" height="24" viewBox="0 0 24 24" fill="none" xmlns="http://www.w3.org/2000/svg">
<path d="M10.8707 10.2521C13.3863 9.60705 15.9697 10.973 16.7576 13.3204L16.8262 13.5433L17.8331 17.1398C18.5282 19.6229 16.9888 22.175 14.3947 22.8402C11.8792 23.4854 9.29578 22.1195 8.50774 19.7721L8.43918 19.5491L7.6841 16.8517C7.54503 16.3551 7.85293 15.8446 8.37178 15.7116C8.85065 15.5888 9.34178 15.8305 9.52394 16.259L9.56284 16.3698L10.318 19.0673C10.735 20.5571 12.3349 21.4412 13.8913 21.042C15.3854 20.6588 16.2965 19.2323 15.9979 17.8007L15.9543 17.6218L14.9475 14.0252C14.5304 12.5354 12.9306 11.6513 11.3743 12.0506C10.8554 12.1835 10.3222 11.8889 10.1831 11.3923C10.044 10.8957 10.352 10.3853 10.8707 10.2521ZM8.60528 2.15975C11.1207 1.51461 13.7042 2.8806 14.4922 5.22797L14.5608 5.45088L15.316 8.14837C15.4549 8.6449 15.147 9.1553 14.6283 9.28841C14.1494 9.41129 13.6581 9.16954 13.476 8.74106L13.4371 8.63019L12.682 5.93273C12.265 4.44296 10.6652 3.55888 9.10867 3.95805C7.61457 4.34126 6.7035 5.76784 7.00197 7.19944L7.04563 7.37826L8.0525 10.975C8.46952 12.4647 10.0694 13.3488 11.6258 12.9496C12.1446 12.8165 12.678 13.1112 12.8169 13.6078C12.956 14.1045 12.648 14.6149 12.1293 14.7479C9.6138 15.393 7.03037 14.027 6.24232 11.6796L6.17376 11.4568L5.1669 7.86017C4.47183 5.3772 6.01125 2.82505 8.60528 2.15975Z" fill="#09244B"/>
</svg>
